<?xml version="1.0" encoding="UTF-8"?>
<svg version="1.1" viewBox="0 0 1080 1080" width="1080" height="1080" xmlns="http://www.w3.org/2000/svg">
<path transform="translate(234,648)" d="m0 0h62l-2 5-16 28-60 104-7 12 660 1-16-28-60-104-10-17v-1h63l14 25 10 17 60 104 12 21 2 8-1 10-4 8-5 5-5 4-6 2h-769l-10-5-6-7-3-6-1-5v-8l4-11 14-24 75-130z" fill="#00BCB1"/>
<path transform="translate(534,144)" d="m0 0h14l10 5 6 7 16 28 105 182 14 24 16 28 2 4h-63l-13-23-14-24-16-28-14-24-16-28-14-24-15-26-11-19-6 9-10 18-14 24-16 28-14 24-16 28-15 26-14 24-9 15h-62l2-5 16-28 90-156 14-24 16-28 15-26 7-7z" fill="#00BCB1"/>
<path transform="translate(528,444)" d="m0 0h20l15 3 13 5 12 7 11 9 11 14 7 15 4 15 1 7v14l-4 8-3 3-3 1h-135l4 15 6 11 9 11 10 7 10 5 16 4h17l14-3 12-5 10-7 3-2h5l11 15-1 5-8 7-15 8-18 6-12 2h-22l-17-4-12-5-12-7-11-9-11-13-7-12-5-13-3-14v-27l5-19 8-16 8-11 11-11 10-7 14-7 15-4zm-1 25-11 3-14 7-11 10-9 14-4 11-1 7h119l-1-10-5-13-9-12-11-9-11-5-12-3z" fill="#000101"/>
<path transform="translate(732,444)" d="m0 0h20l16 3 13 5 11 6 9 7 8 7 9 12 8 15 5 17 1 6v25l-4 17-5 11-7 12-9 11-11 9-11 7-14 6-12 3-7 1h-20l-16-3-14-5-15-9-12-11-7-8-8-13-6-15-3-15v-23l4-17 5-12 7-12 12-13 8-7 14-8 12-5 12-3zm2 25-16 4-14 7-12 11-9 14-5 15-1 7v13l3 15 5 12 9 12 10 9 16 8 13 3h17l16-4 13-7 10-9 6-7 8-16 3-13v-17l-4-16-7-14-11-12-8-6-10-5-16-4z" fill="#000101"/>
<path transform="translate(331,444)" d="m0 0h24l15 4 13 7 12 11 7 11 5 12 3 13v117l-4 2h-18l-4-4-1-111-4-12-6-10-9-8-11-5-7-2h-20l-14 4-10 6-8 7-7 11-4 11-1 110-3 3h-21l-2-1v-171l3-2h12l4 4 4 27 1 1 6-9 7-8 13-9 16-7z" fill="#000101"/>
<path transform="translate(828,885)" d="m0 0h4v2h-4z"/>
</svg>
